{"title":"Mapla Singam Full Movie 2016 pDVDRip Tamil Movies xviD~Hindify.m","uid":13824996,"size":674377533,"categoryP":"video","categoryS":"movies","magnet":"?xt=urn:btih:7645c3b9fe2923a4fd108f81708b4793fef4c1ae&amp;dn=Mapla+Singam+Full+Movie+2016+pDVDRip+Tamil+Movies+xviD%7EHindify.m&amp;tr=udp%3A%2F%2Ftracker.leechers-paradise.org%3A6969&amp;tr=udp%3A%2F%2Fzer0day.ch%3A1337&amp;tr=udp%3A%2F%2Fopen.demonii.com%3A1337&amp;tr=udp%3A%2F%2Ftracker.coppersurfer.tk%3A6969&amp;tr=udp%3A%2F%2Fexodus.desync.com%3A6969","seeders":4,"leechers":0,"uploader":null,"files":1,"time":1457687985,"description":"HINDIFY.CO [WATCH ONLINE MOVIES] PRESENTS:\r\n\r\nMapla Singam Full Movie 2016 pDVDRip Tamil Movies xviD~Hindify.mp4\r\n\r\nSCREENS:\r\n \nhttp://www.hindify.co/mapla-singam-full-movie-watch-online-mp3-songs/\r\n\r\nINFO:\r\n\r\nFormat : MPEG-4\r\nFormat profile : Base Media\r\nCodec ID : isom (isom/iso2/avc1/mp41)\r\nFile size : 643 MiB\r\nDuration : 2h 11mn\r\nOverall bit rate : 685 Kbps\r\nMovie name : www.TamilRockers.cc\r\nWriting application : Lavf57.20.100\r\n\r\nVideo\r\nID : 1\r\nFormat : AVC\r\nFormat/Info : Advanced Video Codec\r\nFormat profile :   \r\nFormat settings, CABAC : Yes\r\nFormat settings, ReFrames : 4 frames\r\nCodec ID : avc1\r\nCodec ID/Info : Advanced Video Coding\r\nDuration : 2h 11mn\r\nBit rate : 547 Kbps\r\nWidth : 608 pixels\r\nHeight : 256 pixels\r\nDisplay aspect ratio : 2.40:1\r\nFrame rate mode : Variable\r\nFrame rate : 29.970 (30000/1001) fps\r\nMinimum frame rate : 29.412 fps\r\nMaximum frame rate : 30.303 fps\r\nColor space : YUV\r\nChroma subsampling : 4:2:0\r\nBit depth : 8 bits\r\nScan type : Progressive\r\nBits/(Pixel*Frame) : 0.117\r\nStream size : 514 MiB (80%)\r\nWriting library : x264 core 142 r2479 dd79a61\r\nEncoding settings : cabac=1 / ref=1 / deblock=1:0:0 / analyse=0x1:0x111 / me=hex / subme=2 / psy=1 / psy_rd=1.00:0.00 / mixed_ref=0 / me_range=16 / chroma_me=1 / trellis=0 / 8x8dct=0 / cqm=0 / deadzone=21,11 / fast_pskip=1 / chroma_qp_offset=0 / threads=6 / lookahead_threads=2 / sliced_threads=0 / nr=0 / decimate=1 / interlaced=0 / bluray_compat=0 / constrained_intra=0 / bframes=3 / b_pyramid=2 / b_adapt=1 / b_bias=0 / direct=1 / weightb=1 / open_gop=0 / weightp=1 / keyint=300 / keyint_min=30 / scenecut=40 / intra_refresh=0 / rc_lookahead=10 / rc=crf / mbtree=1 / crf=20.0 / qcomp=0.60 / qpmin=0 / qpmax=69 / qpstep=4 / vbv_maxrate=20000 / vbv_bufsize=25000 / crf_max=0.0 / nal_hrd=none / filler=0 / ip_ratio=1.40 / aq=1:1.00\r\nColor range : Limited\r\nColor primaries : BT.601 NTSC\r\nTransfer characteristics : BT.709\r\nMatrix coefficients : BT.601\r\n\r\nAudio\r\nID : 2\r\nFormat : AAC\r\nFormat/Info : Advanced Audio Codec\r\nFormat profile : LC\r\nCodec ID : 40\r\nDuration : 2h 11mn\r\nBit rate mode : Constant\r\nBit rate : 128 Kbps\r\nChannel(s) : 2 channels\r\nChannel positions : Front: L R\r\nSampling rate : 48.0 KHz\r\nFrame rate : 46.875 fps (1024 spf)\r\nCompression mode : Lossy\r\nStream size : 120 MiB (19%)\r\nTitle : Stereo\r\nLanguage : Tamil\r\nDefault : Yes\r\nAlternate group : 1","torrent":{"xt":"urn:btih:7645c3b9fe2923a4fd108f81708b4793fef4c1ae","amp;dn":"Mapla+Singam+Full+Movie+2016+pDVDRip+Tamil+Movies+xviD%7EHindify.m","amp;tr":["udp%3A%2F%2Ftracker.leechers-paradise.org%3A6969","udp%3A%2F%2Fzer0day.ch%3A1337","udp%3A%2F%2Fopen.demonii.com%3A1337","udp%3A%2F%2Ftracker.coppersurfer.tk%3A6969","udp%3A%2F%2Fexodus.desync.com%3A6969"],"infoHash":"7645c3b9fe2923a4fd108f81708b4793fef4c1ae","infoHashBuffer":{"type":"Buffer","data":[118,69,195,185,254,41,35,164,253,16,143,129,112,139,71,147,254,244,193,174]},"announce":[],"urlList":[]}}